HIERARCHY
ROOT root
{
	OFFSET	0	13.1	24.9
	CHANNELS 6  Xposition Yposition Zposition Xrotation Yrotation Zrotation
	JOINT spine_1
	{
		OFFSET	0	9.99999	0
		CHANNELS 3  Xrotation Yrotation Zrotation
		JOINT spine_2
		{
			OFFSET	0	112	-10
			CHANNELS 3  Xrotation Yrotation Zrotation
			JOINT spine_3
			{
				OFFSET	0	206.5	19.3
				CHANNELS 3  Xrotation Yrotation Zrotation
				JOINT spine_4
				{
					OFFSET	0	110.4	14.6
					CHANNELS 3  Xrotation Yrotation Zrotation
					JOINT neck_1
					{
						OFFSET	0	71.8	-50.3
						CHANNELS 3  Xrotation Yrotation Zrotation
						JOINT neck_2
						{
							OFFSET	0	86.2	-25.8
							CHANNELS 3  Xrotation Yrotation Zrotation
							JOINT head_ee
							{
								OFFSET	0	179.8	-8.7
								CHANNELS 3  Xrotation Yrotation Zrotation
								End Site
								{
									OFFSET	1	0	0
								}
							}
						}
					}
					JOINT left_clavicle
					{
						OFFSET	-43.2	22.4	-70.8
						CHANNELS 3  Xrotation Yrotation Zrotation
						JOINT left_shoulder
						{
							OFFSET	-93.9	-5.79999	48.7
							CHANNELS 3  Xrotation Yrotation Zrotation
							JOINT left_elbow
							{
								OFFSET	-291.4	-30.8	15.2
								CHANNELS 3  Xrotation Yrotation Zrotation
								JOINT left_lowarm_twist
								{
									OFFSET	-110.7	-3.89999	13.6
									CHANNELS 3  Xrotation Yrotation Zrotation
									JOINT left_hand
									{
										OFFSET	-110.7	-3.89999	13.6
										CHANNELS 3  Xrotation Yrotation Zrotation
										JOINT left_ee
										{
											OFFSET	-80.8	-5.10001	12.1
											CHANNELS 3  Xrotation Yrotation Zrotation
											End Site
											{
												OFFSET	1	0	0
											}
										}
									}
								}
							}
						}
					}
					JOINT right_clavicle
					{
						OFFSET	43.2	22.4	-70.8
						CHANNELS 3  Xrotation Yrotation Zrotation
						JOINT right_shoulder
						{
							OFFSET	93.9	-5.79999	48.7
							CHANNELS 3  Xrotation Yrotation Zrotation
							JOINT right_elbow
							{
								OFFSET	291.4	-30.8	15.2
								CHANNELS 3  Xrotation Yrotation Zrotation
								JOINT right_lowarm_twist
								{
									OFFSET	110.7	-3.89999	13.6
									CHANNELS 3  Xrotation Yrotation Zrotation
									JOINT right_hand
									{
										OFFSET	110.7	-3.89999	13.6
										CHANNELS 3  Xrotation Yrotation Zrotation
										JOINT right_ee
										{
											OFFSET	80.8	-5.10001	12.1
											CHANNELS 3  Xrotation Yrotation Zrotation
											End Site
											{
												OFFSET	1	0	0
											}
										}
									}
								}
							}
						}
					}
				}
			}
		}
	}
	JOINT left_hip
	{
		OFFSET	-82.8	-127.5	0.300001
		CHANNELS 3  Xrotation Yrotation Zrotation
		JOINT left_knee
		{
			OFFSET	-28.2	-396.7	2.2
			CHANNELS 3  Xrotation Yrotation Zrotation
			JOINT left_ankle
			{
				OFFSET	-11.7	-411.3	35.4
				CHANNELS 3  Xrotation Yrotation Zrotation
				JOINT left_toes
				{
					OFFSET	0	-60	-88.6
					CHANNELS 3  Xrotation Yrotation Zrotation
					JOINT left_foot_ee
					{
						OFFSET	-22.5	-16.5	-42.2
						CHANNELS 3  Xrotation Yrotation Zrotation
						End Site
						{
							OFFSET	1	0	0
						}
					}
				}
			}
		}
	}
	JOINT right_hip
	{
		OFFSET	82.8	-127.5	0.300001
		CHANNELS 3  Xrotation Yrotation Zrotation
		JOINT right_knee
		{
			OFFSET	28.2	-396.7	2.2
			CHANNELS 3  Xrotation Yrotation Zrotation
			JOINT right_ankle
			{
				OFFSET	11.7	-411.3	35.4
				CHANNELS 3  Xrotation Yrotation Zrotation
				JOINT right_toes
				{
					OFFSET	0	-60	-88.6
					CHANNELS 3  Xrotation Yrotation Zrotation
					JOINT right_foot_ee
					{
						OFFSET	22.5	-16.5	-42.2
						CHANNELS 3  Xrotation Yrotation Zrotation
						End Site
						{
							OFFSET	1	0	0
						}
					}
				}
			}
		}
	}
}
MOTION
Frames: 9
Frame Time: 0.02
3177.02 653.055 -1669.29 -1.04136267883 56.2567394676 -2.98259957127 -0.773511 0.90618 5.03359 -0.759611 0.584467 5.08088 -0.697125 -0.559045 5.08374 -0.733085 0.24977 5.10822 -2.76633 12.7714 -5.42114 -2.24373 27.3966 -3.94858 -0.0 0.0 -0.0 -2.31596 23.1206 -0.516546 -28.1603 -17.9076 59.5517 0.843564 -22.6787 0.169167 -61.9286 -5.52353 5.15716 1.96616 -12.8754 7.78592 -0.0 0.0 -0.0 13.2757 24.4532 -26.4902 5.89064 30.7205 -62.4073 2.02868 45.1362 -0.843206 34.8098 0.107179 4.3778 2.95543 27.8888 -7.11558 0.0 0.0 0.0 19.1378 -6.84445 -5.96842 4.01998 -0.186294 -0.588536 -18.8858 22.3914 2.92079 2.35885 -0.0 -0.0 -0.0 0.0 -0.0 -16.0892 -1.42261 8.43617 -9.43735 -0.272033 -1.42116 23.5448 16.1061 3.42942 -6.40796 0.0 0.0 0.0 0.0 0.0 
3157.30907933 653.143 -1670.71569508 -0.674428754667 54.7308742758 -3.1485976175 -0.799876 0.923331 5.04552 -0.785921 0.600828 5.09387 -0.721653 -0.548114 5.0998 -0.757831 0.263092 5.12236 -1.82341 12.252 -5.59299 -1.23825 26.5245 -4.43321 -0.0 0.0 -0.0 -2.25859 23.3369 -0.399193 -27.6164 -18.2379 59.6865 0.861755 -23.1168 0.176245 -61.5998 -5.48235 5.14819 1.83299 -13.9268 6.41372 -0.0 0.0 -0.0 13.3294 24.5419 -26.6056 5.21313 30.4895 -62.6311 1.93068 43.7187 -0.774599 33.9687 0.0732674 4.27577 3.17205 28.0297 -8.42866 0.0 0.0 0.0 18.7126 -6.99464 -5.93989 3.41091 -0.155415 -0.500211 -21.0363 22.1047 3.25212 2.20278 -0.0 -0.0 -0.0 0.0 -0.0 -16.6743 -1.44456 8.6117 -10.8031 -0.291878 -1.62978 22.6426 16.4577 3.32365 -6.35393 0.0 0.0 0.0 0.0 0.0 
3132.2444156 652.698 -1667.47075804 -0.573485242667 53.746997622 -2.36132858984 -0.705968 0.943735 5.00077 -0.692278 0.624027 5.05051 -0.626896 -0.50733 5.06353 -0.662533 0.297663 5.08013 0.940784 11.6788 -6.13737 1.75088 25.7321 -5.75487 -0.0 0.0 -0.0 -2.33656 23.2534 -0.521329 -26.5661 -18.6312 60.3126 0.903165 -24.1035 0.19283 -61.7897 -5.50613 5.1534 1.73793 -14.0087 5.73504 -0.0 0.0 -0.0 13.2999 24.6488 -26.5255 3.84507 30.1588 -62.9139 1.86235 42.6889 -0.72782 33.1107 0.0402196 4.17119 3.32417 28.1173 -9.3573 0.0 0.0 0.0 17.0636 -6.80054 -5.41617 2.62566 -0.116996 -0.385869 -20.6614 21.9117 3.19127 2.72608 -0.0 -0.0 -0.0 0.0 -0.0 -16.6273 -1.75727 8.57136 -11.3756 -0.298718 -1.71736 19.9834 16.5051 2.97732 -6.37685 0.0 0.0 0.0 0.0 0.0 
3132.2503005 652.698 -1667.33127428 -0.575934776708 53.9254865786 -2.35829449011 -0.705968 0.943735 5.00077 -0.692278 0.624027 5.05051 -0.626896 -0.50733 5.06353 -0.662533 0.297663 5.08013 0.940784 11.6788 -6.13737 1.75088 25.7321 -5.75487 -0.0 0.0 -0.0 -2.33656 23.2534 -0.521329 -26.5661 -18.6312 60.3126 0.903165 -24.1035 0.19283 -61.7897 -5.50613 5.1534 1.73793 -14.0087 5.73504 -0.0 0.0 -0.0 13.2999 24.6488 -26.5255 3.84507 30.1588 -62.9139 1.86235 42.6889 -0.72782 33.1107 0.0402196 4.17119 3.32417 28.1173 -9.3573 0.0 0.0 0.0 17.0636 -6.80054 -5.41617 2.62566 -0.116996 -0.385869 -20.6614 21.9117 3.19127 2.72608 -0.0 -0.0 -0.0 0.0 -0.0 -16.6273 -1.75727 8.57136 -11.3756 -0.298718 -1.71736 19.9834 16.5051 2.97732 -6.37685 0.0 0.0 0.0 0.0 0.0 
3109.75922961 654.875 -1670.26013717 0.687373202433 54.1732826276 -3.24698721463 -0.872804 0.809967 4.9863 -0.859112 0.491445 5.02759 -0.805394 -0.647708 5.0099 -0.84037 0.150597 5.04925 3.59186 10.8481 -6.42591 4.5372 24.3035 -6.72982 -0.0 0.0 -0.0 -2.96664 23.26 -1.38945 -26.1707 -18.9638 60.3601 0.978763 -25.866 0.224765 -61.9733 -5.52914 5.15836 1.68296 -14.3747 5.201 -0.0 0.0 -0.0 13.2139 24.7279 -26.3168 1.83148 29.8369 -63.1874 1.82142 42.0552 -0.700235 31.6193 -0.0134745 3.9883 3.53342 28.4993 -10.4921 0.0 0.0 0.0 15.5884 -6.37486 -6.39834 2.09145 -0.091758 -0.307793 -20.1146 21.7449 3.10412 2.76028 -0.0 -0.0 -0.0 0.0 -0.0 -16.1195 -1.76676 10.4129 -15.689 -0.322064 -2.3786 17.1405 14.8345 2.55926 -5.96684 0.0 0.0 0.0 0.0 0.0 
3085.51652976 655.626 -1678.08935985 1.64084387673 53.4652471205 -3.14417477854 -0.941791 0.722053 4.92535 -0.928393 0.407572 4.96119 -0.882731 -0.721488 4.92543 -0.916563 0.0644468 4.97745 4.55684 10.4267 -6.68509 5.54745 23.7171 -7.25251 -0.0 0.0 -0.0 -3.36876 23.4255 -1.91082 -24.3198 -19.4287 60.428 0.971155 -25.6909 0.221456 -62.1003 -5.54505 5.16175 1.59551 -14.2811 4.65344 -0.0 0.0 -0.0 13.3291 25.7359 -26.4703 -0.331944 29.5688 -63.6674 1.79317 41.6103 -0.681394 30.5591 -0.0487353 3.85749 3.57578 27.6536 -11.2305 0.0 0.0 0.0 14.8169 -5.79771 -6.22533 0.731838 -0.0308269 -0.108073 -18.203 23.9556 2.83409 3.60625 -0.0 -0.0 -0.0 0.0 -0.0 -15.8767 -0.724592 9.69326 -18.94 -0.306746 -2.8771 15.1968 13.7069 2.27214 -6.33353 0.0 0.0 0.0 0.0 0.0 
3085.63935445 655.626 -1679.28456946 1.61253871964 52.7166649233 -3.10877594005 -0.941791 0.722053 4.92535 -0.928393 0.407572 4.96119 -0.882731 -0.721488 4.92543 -0.916563 0.0644468 4.97745 4.55684 10.4267 -6.68509 5.54745 23.7171 -7.25251 -0.0 0.0 -0.0 -3.36876 23.4255 -1.91082 -24.3198 -19.4287 60.428 0.971155 -25.6909 0.221456 -62.1003 -5.54505 5.16175 1.59551 -14.2811 4.65344 -0.0 0.0 -0.0 13.3291 25.7359 -26.4703 -0.331944 29.5688 -63.6674 1.79317 41.6103 -0.681394 30.5591 -0.0487353 3.85749 3.57578 27.6536 -11.2305 0.0 0.0 0.0 14.8169 -5.79771 -6.22533 0.731838 -0.0308269 -0.108073 -18.203 23.9556 2.83409 3.60625 -0.0 -0.0 -0.0 0.0 -0.0 -15.8767 -0.724592 9.69326 -18.94 -0.306746 -2.8771 15.1968 13.7069 2.27214 -6.33353 0.0 0.0 0.0 0.0 0.0 
3059.29802207 663.81 -1677.48399854 1.54426120196 52.5875726063 -3.01104583155 -0.864343 0.857436 4.87674 -0.851283 0.545764 4.92127 -0.79412 -0.569697 4.91856 -0.8278 0.213265 4.94678 6.23395 9.49175 -7.66674 7.34279 22.8422 -8.78796 -0.0 0.0 -0.0 -3.84921 24.0806 -2.42727 -22.9565 -19.9726 60.309 1.00839 -26.5427 0.237846 -62.513 -5.59684 5.17252 1.61038 -14.4141 4.69446 -0.0 0.0 -0.0 13.3587 26.6383 -26.43 -2.57001 29.2588 -63.8772 1.5701 37.8724 -0.538705 29.5925 -0.0787703 3.73768 3.58666 27.0181 -11.6501 0.0 0.0 0.0 14.8536 -5.02818 -5.22684 -2.36503 0.0901275 0.351738 -15.0511 25.4993 2.35647 4.53905 -0.0 -0.0 -0.0 0.0 -0.0 -16.4078 0.918337 9.68916 -19.0911 -0.305346 -2.90024 12.7266 9.10068 1.87096 -7.48678 0.0 0.0 0.0 0.0 0.0 
3036.55561161 663.797 -1677.78991734 1.16815697359 53.4434175307 -2.42256566875 -0.790174 0.836301 4.6421 -0.778352 0.53955 4.68577 -0.725091 -0.517248 4.68828 -0.755677 0.228821 4.71112 6.53988 8.63498 -8.57818 7.68601 22.1722 -9.95016 -0.0 0.0 -0.0 -3.81666 23.8041 -2.4447 -21.3508 -20.5957 60.1857 1.02118 -26.8325 0.243591 -62.9206 -5.64805 5.18278 1.61754 -14.2497 4.81582 -0.0 0.0 -0.0 13.3412 26.8978 -26.3567 -4.61558 28.9945 -64.1883 1.41154 34.9606 -0.444544 28.4087 -0.11279 3.59029 3.57514 26.3726 -11.9282 0.0 0.0 0.0 14.4633 -4.43737 -4.36488 -4.54958 0.160401 0.679617 -12.7638 26.2818 2.00259 5.53142 -0.0 -0.0 -0.0 0.0 -0.0 -16.2611 2.33912 10.0946 -19.1644 -0.304646 -2.91146 9.2833 4.12385 1.35257 -8.48699 0.0 0.0 0.0 0.0 0.0 
